<mxfile host="app.diagrams.net" modified="2023-07-06T21:14:23.191Z" agent="Mozilla/5.0 (Macintosh; Intel Mac OS X 10_15_7) AppleWebKit/605.1.15 (KHTML, like Gecko) Version/16.5.1 Safari/605.1.15" version="21.6.1" etag="q9eabC-tjGf0SG6RDU-y" type="github">
  <diagram name="Page-1" id="EhTNOT_K2n1csAnsaTSJ">
    <mxGraphModel>
      <root>
        <mxCell id="0" />
        <mxCell id="1" parent="0" />
      </root>
    </mxGraphModel>
  </diagram>
</mxfile>
